<mxfile host="www.draw.io" modified="2020-02-15T07:40:41.365Z" agent="Mozilla/5.0 (Macintosh; Intel Mac OS X 10_14_4) AppleWebKit/537.36 (KHTML, like Gecko) Chrome/79.0.3945.130 Safari/537.36" etag="dyPw1ln9JNvP9cREWxDt" version="12.7.0" type="github">
  <diagram id="X3lMsigEZ51bs_y9SPqC" name="Page-1">
    <mxGraphModel dx="946" dy="520" grid="1" gridSize="10" guides="1" tooltips="1" connect="1" arrows="1" fold="1" page="1" pageScale="1" pageWidth="827" pageHeight="1169" math="0" shadow="0">
      <root>
        <mxCell id="0"/>
        <mxCell id="1" parent="0"/>
        <mxCell id="Qo_AEfp6a7vn4tAhpDk_-20" value="" style="rounded=0;whiteSpace=wrap;html=1;fillColor=#f5f5f5;strokeColor=#666666;fontColor=#333333;" vertex="1" parent="1">
          <mxGeometry x="125" y="390" width="275" height="270" as="geometry"/>
        </mxCell>
        <mxCell id="5JORFhpoqFamre0fklCF-31" value="" style="rounded=0;whiteSpace=wrap;html=1;fillColor=#dae8fc;strokeColor=#6c8ebf;" parent="1" vertex="1">
          <mxGeometry x="51" y="291" width="520" height="79" as="geometry"/>
        </mxCell>
        <mxCell id="5JORFhpoqFamre0fklCF-22" value="" style="rounded=0;whiteSpace=wrap;html=1;fillColor=#f5f5f5;strokeColor=#666666;fontColor=#333333;" parent="1" vertex="1">
          <mxGeometry x="51" y="121" width="520" height="135" as="geometry"/>
        </mxCell>
        <mxCell id="5JORFhpoqFamre0fklCF-16" style="edgeStyle=orthogonalEdgeStyle;rounded=0;orthogonalLoop=1;jettySize=auto;html=1;entryX=0.5;entryY=0;entryDx=0;entryDy=0;strokeWidth=5;" parent="1" source="5JORFhpoqFamre0fklCF-1" target="5JORFhpoqFamre0fklCF-2" edge="1">
          <mxGeometry relative="1" as="geometry"/>
        </mxCell>
        <mxCell id="5JORFhpoqFamre0fklCF-1" value="start" style="ellipse;whiteSpace=wrap;html=1;aspect=fixed;" parent="1" vertex="1">
          <mxGeometry x="87.5" y="50" width="50" height="50" as="geometry"/>
        </mxCell>
        <mxCell id="5JORFhpoqFamre0fklCF-11" style="edgeStyle=orthogonalEdgeStyle;rounded=0;orthogonalLoop=1;jettySize=auto;html=1;entryX=0;entryY=0.5;entryDx=0;entryDy=0;" parent="1" source="5JORFhpoqFamre0fklCF-2" target="5JORFhpoqFamre0fklCF-3" edge="1">
          <mxGeometry relative="1" as="geometry"/>
        </mxCell>
        <mxCell id="5JORFhpoqFamre0fklCF-2" value="undolog&lt;br&gt;(mem)" style="rounded=1;whiteSpace=wrap;html=1;" parent="1" vertex="1">
          <mxGeometry x="75" y="140" width="75" height="30" as="geometry"/>
        </mxCell>
        <mxCell id="5JORFhpoqFamre0fklCF-12" style="edgeStyle=orthogonalEdgeStyle;rounded=0;orthogonalLoop=1;jettySize=auto;html=1;entryX=0;entryY=0.5;entryDx=0;entryDy=0;" parent="1" source="5JORFhpoqFamre0fklCF-3" target="5JORFhpoqFamre0fklCF-4" edge="1">
          <mxGeometry relative="1" as="geometry"/>
        </mxCell>
        <mxCell id="5JORFhpoqFamre0fklCF-3" value="data(mem)" style="rounded=1;whiteSpace=wrap;html=1;" parent="1" vertex="1">
          <mxGeometry x="185" y="140" width="60" height="30" as="geometry"/>
        </mxCell>
        <mxCell id="5JORFhpoqFamre0fklCF-13" style="edgeStyle=orthogonalEdgeStyle;rounded=0;orthogonalLoop=1;jettySize=auto;html=1;entryX=0;entryY=0.5;entryDx=0;entryDy=0;" parent="1" source="5JORFhpoqFamre0fklCF-4" target="5JORFhpoqFamre0fklCF-5" edge="1">
          <mxGeometry relative="1" as="geometry"/>
        </mxCell>
        <mxCell id="5JORFhpoqFamre0fklCF-4" value="redolog&lt;br&gt;(prepare)" style="rounded=1;whiteSpace=wrap;html=1;" parent="1" vertex="1">
          <mxGeometry x="283" y="140" width="70" height="30" as="geometry"/>
        </mxCell>
        <mxCell id="5JORFhpoqFamre0fklCF-14" style="edgeStyle=orthogonalEdgeStyle;rounded=0;orthogonalLoop=1;jettySize=auto;html=1;entryX=0;entryY=0.5;entryDx=0;entryDy=0;" parent="1" source="5JORFhpoqFamre0fklCF-5" target="5JORFhpoqFamre0fklCF-6" edge="1">
          <mxGeometry relative="1" as="geometry"/>
        </mxCell>
        <mxCell id="5JORFhpoqFamre0fklCF-15" style="edgeStyle=orthogonalEdgeStyle;rounded=0;orthogonalLoop=1;jettySize=auto;html=1;entryX=0;entryY=0;entryDx=0;entryDy=0;" parent="1" source="5JORFhpoqFamre0fklCF-5" target="5JORFhpoqFamre0fklCF-9" edge="1">
          <mxGeometry relative="1" as="geometry"/>
        </mxCell>
        <mxCell id="5JORFhpoqFamre0fklCF-5" value="binlog" style="rounded=1;whiteSpace=wrap;html=1;" parent="1" vertex="1">
          <mxGeometry x="384" y="140" width="70" height="30" as="geometry"/>
        </mxCell>
        <mxCell id="5JORFhpoqFamre0fklCF-6" value="redolog&lt;br&gt;(commit)" style="rounded=1;whiteSpace=wrap;html=1;" parent="1" vertex="1">
          <mxGeometry x="483" y="140" width="70" height="30" as="geometry"/>
        </mxCell>
        <mxCell id="5JORFhpoqFamre0fklCF-27" style="edgeStyle=orthogonalEdgeStyle;rounded=0;orthogonalLoop=1;jettySize=auto;html=1;entryX=1;entryY=0.75;entryDx=0;entryDy=0;strokeWidth=1;" parent="1" source="5JORFhpoqFamre0fklCF-9" target="5JORFhpoqFamre0fklCF-26" edge="1">
          <mxGeometry relative="1" as="geometry"/>
        </mxCell>
        <mxCell id="5JORFhpoqFamre0fklCF-9" value="dump_thread" style="ellipse;whiteSpace=wrap;html=1;" parent="1" vertex="1">
          <mxGeometry x="435" y="210" width="95" height="40" as="geometry"/>
        </mxCell>
        <mxCell id="5JORFhpoqFamre0fklCF-20" style="edgeStyle=orthogonalEdgeStyle;rounded=0;orthogonalLoop=1;jettySize=auto;html=1;entryX=0;entryY=0.5;entryDx=0;entryDy=0;" parent="1" source="5JORFhpoqFamre0fklCF-17" target="5JORFhpoqFamre0fklCF-18" edge="1">
          <mxGeometry relative="1" as="geometry"/>
        </mxCell>
        <mxCell id="5JORFhpoqFamre0fklCF-17" value="bg_thread" style="rounded=1;whiteSpace=wrap;html=1;" parent="1" vertex="1">
          <mxGeometry x="76" y="210" width="75" height="30" as="geometry"/>
        </mxCell>
        <mxCell id="5JORFhpoqFamre0fklCF-21" style="edgeStyle=orthogonalEdgeStyle;rounded=0;orthogonalLoop=1;jettySize=auto;html=1;entryX=0;entryY=0.5;entryDx=0;entryDy=0;" parent="1" source="5JORFhpoqFamre0fklCF-18" target="5JORFhpoqFamre0fklCF-19" edge="1">
          <mxGeometry relative="1" as="geometry"/>
        </mxCell>
        <mxCell id="5JORFhpoqFamre0fklCF-18" value="undolog&lt;br&gt;(disk)" style="rounded=1;whiteSpace=wrap;html=1;" parent="1" vertex="1">
          <mxGeometry x="186" y="210" width="60" height="30" as="geometry"/>
        </mxCell>
        <mxCell id="5JORFhpoqFamre0fklCF-19" value="data(disk)" style="rounded=1;whiteSpace=wrap;html=1;" parent="1" vertex="1">
          <mxGeometry x="284" y="210" width="70" height="30" as="geometry"/>
        </mxCell>
        <mxCell id="5JORFhpoqFamre0fklCF-23" value="data" style="rounded=1;whiteSpace=wrap;html=1;" parent="1" vertex="1">
          <mxGeometry x="70" y="310" width="75" height="30" as="geometry"/>
        </mxCell>
        <mxCell id="5JORFhpoqFamre0fklCF-30" style="edgeStyle=orthogonalEdgeStyle;rounded=0;orthogonalLoop=1;jettySize=auto;html=1;entryX=1;entryY=0.5;entryDx=0;entryDy=0;strokeWidth=5;" parent="1" source="5JORFhpoqFamre0fklCF-24" target="5JORFhpoqFamre0fklCF-23" edge="1">
          <mxGeometry relative="1" as="geometry"/>
        </mxCell>
        <mxCell id="5JORFhpoqFamre0fklCF-24" value="sql_thread" style="rounded=1;whiteSpace=wrap;html=1;" parent="1" vertex="1">
          <mxGeometry x="190" y="310" width="57" height="30" as="geometry"/>
        </mxCell>
        <mxCell id="5JORFhpoqFamre0fklCF-29" style="edgeStyle=orthogonalEdgeStyle;rounded=0;orthogonalLoop=1;jettySize=auto;html=1;strokeWidth=1;" parent="1" source="5JORFhpoqFamre0fklCF-25" edge="1">
          <mxGeometry relative="1" as="geometry">
            <mxPoint x="250" y="325" as="targetPoint"/>
          </mxGeometry>
        </mxCell>
        <mxCell id="5JORFhpoqFamre0fklCF-25" value="relaylog" style="rounded=1;whiteSpace=wrap;html=1;" parent="1" vertex="1">
          <mxGeometry x="285" y="310" width="70" height="30" as="geometry"/>
        </mxCell>
        <mxCell id="5JORFhpoqFamre0fklCF-28" style="edgeStyle=orthogonalEdgeStyle;rounded=0;orthogonalLoop=1;jettySize=auto;html=1;strokeWidth=1;" parent="1" source="5JORFhpoqFamre0fklCF-26" edge="1">
          <mxGeometry relative="1" as="geometry">
            <mxPoint x="360" y="325" as="targetPoint"/>
          </mxGeometry>
        </mxCell>
        <mxCell id="5JORFhpoqFamre0fklCF-26" value="io_thread" style="rounded=1;whiteSpace=wrap;html=1;" parent="1" vertex="1">
          <mxGeometry x="394" y="310" width="60" height="30" as="geometry"/>
        </mxCell>
        <mxCell id="5JORFhpoqFamre0fklCF-32" value="Master A" style="text;html=1;strokeColor=#82b366;fillColor=#d5e8d4;align=center;verticalAlign=middle;whiteSpace=wrap;rounded=0;" parent="1" vertex="1">
          <mxGeometry x="272" y="101" width="56" height="20" as="geometry"/>
        </mxCell>
        <mxCell id="5JORFhpoqFamre0fklCF-33" value="Slave B" style="text;html=1;strokeColor=#82b366;fillColor=#d5e8d4;align=center;verticalAlign=middle;whiteSpace=wrap;rounded=0;" parent="1" vertex="1">
          <mxGeometry x="270" y="271" width="56" height="20" as="geometry"/>
        </mxCell>
        <mxCell id="Qo_AEfp6a7vn4tAhpDk_-9" style="edgeStyle=orthogonalEdgeStyle;rounded=0;orthogonalLoop=1;jettySize=auto;html=1;" edge="1" parent="1" source="Qo_AEfp6a7vn4tAhpDk_-2">
          <mxGeometry relative="1" as="geometry">
            <mxPoint x="170" y="450" as="targetPoint"/>
          </mxGeometry>
        </mxCell>
        <mxCell id="Qo_AEfp6a7vn4tAhpDk_-10" style="edgeStyle=orthogonalEdgeStyle;rounded=0;orthogonalLoop=1;jettySize=auto;html=1;" edge="1" parent="1" source="Qo_AEfp6a7vn4tAhpDk_-2">
          <mxGeometry relative="1" as="geometry">
            <mxPoint x="320" y="450" as="targetPoint"/>
          </mxGeometry>
        </mxCell>
        <mxCell id="Qo_AEfp6a7vn4tAhpDk_-2" value="连接器" style="ellipse;whiteSpace=wrap;html=1;" vertex="1" parent="1">
          <mxGeometry x="194" y="400" width="90" height="40" as="geometry"/>
        </mxCell>
        <mxCell id="Qo_AEfp6a7vn4tAhpDk_-11" style="edgeStyle=orthogonalEdgeStyle;rounded=0;orthogonalLoop=1;jettySize=auto;html=1;entryX=1;entryY=0.5;entryDx=0;entryDy=0;" edge="1" parent="1" source="Qo_AEfp6a7vn4tAhpDk_-3" target="Qo_AEfp6a7vn4tAhpDk_-6">
          <mxGeometry relative="1" as="geometry"/>
        </mxCell>
        <mxCell id="Qo_AEfp6a7vn4tAhpDk_-16" style="edgeStyle=orthogonalEdgeStyle;rounded=0;orthogonalLoop=1;jettySize=auto;html=1;" edge="1" parent="1" source="Qo_AEfp6a7vn4tAhpDk_-3" target="Qo_AEfp6a7vn4tAhpDk_-4">
          <mxGeometry relative="1" as="geometry"/>
        </mxCell>
        <mxCell id="Qo_AEfp6a7vn4tAhpDk_-24" value="" style="edgeStyle=orthogonalEdgeStyle;rounded=0;orthogonalLoop=1;jettySize=auto;html=1;" edge="1" parent="1" source="Qo_AEfp6a7vn4tAhpDk_-3" target="Qo_AEfp6a7vn4tAhpDk_-23">
          <mxGeometry relative="1" as="geometry"/>
        </mxCell>
        <mxCell id="Qo_AEfp6a7vn4tAhpDk_-3" value="分析器" style="ellipse;whiteSpace=wrap;html=1;" vertex="1" parent="1">
          <mxGeometry x="274" y="460" width="90" height="40" as="geometry"/>
        </mxCell>
        <mxCell id="Qo_AEfp6a7vn4tAhpDk_-23" value="词法分析、语法分析" style="ellipse;whiteSpace=wrap;html=1;" vertex="1" parent="1">
          <mxGeometry x="435" y="460" width="90" height="40" as="geometry"/>
        </mxCell>
        <mxCell id="Qo_AEfp6a7vn4tAhpDk_-17" style="edgeStyle=orthogonalEdgeStyle;rounded=0;orthogonalLoop=1;jettySize=auto;html=1;" edge="1" parent="1" source="Qo_AEfp6a7vn4tAhpDk_-4" target="Qo_AEfp6a7vn4tAhpDk_-5">
          <mxGeometry relative="1" as="geometry"/>
        </mxCell>
        <mxCell id="Qo_AEfp6a7vn4tAhpDk_-26" value="" style="edgeStyle=orthogonalEdgeStyle;rounded=0;orthogonalLoop=1;jettySize=auto;html=1;" edge="1" parent="1" source="Qo_AEfp6a7vn4tAhpDk_-4" target="Qo_AEfp6a7vn4tAhpDk_-25">
          <mxGeometry relative="1" as="geometry"/>
        </mxCell>
        <mxCell id="Qo_AEfp6a7vn4tAhpDk_-4" value="优化器" style="ellipse;whiteSpace=wrap;html=1;" vertex="1" parent="1">
          <mxGeometry x="274" y="530" width="90" height="40" as="geometry"/>
        </mxCell>
        <mxCell id="Qo_AEfp6a7vn4tAhpDk_-25" value="执行计划生成、索引选择" style="ellipse;whiteSpace=wrap;html=1;" vertex="1" parent="1">
          <mxGeometry x="435" y="530" width="90" height="40" as="geometry"/>
        </mxCell>
        <mxCell id="Qo_AEfp6a7vn4tAhpDk_-28" value="" style="edgeStyle=orthogonalEdgeStyle;rounded=0;orthogonalLoop=1;jettySize=auto;html=1;" edge="1" parent="1" source="Qo_AEfp6a7vn4tAhpDk_-5" target="Qo_AEfp6a7vn4tAhpDk_-27">
          <mxGeometry relative="1" as="geometry"/>
        </mxCell>
        <mxCell id="Qo_AEfp6a7vn4tAhpDk_-5" value="执行器" style="ellipse;whiteSpace=wrap;html=1;" vertex="1" parent="1">
          <mxGeometry x="274" y="603" width="90" height="40" as="geometry"/>
        </mxCell>
        <mxCell id="Qo_AEfp6a7vn4tAhpDk_-27" value="调用储存引擎" style="ellipse;whiteSpace=wrap;html=1;" vertex="1" parent="1">
          <mxGeometry x="435" y="603" width="90" height="40" as="geometry"/>
        </mxCell>
        <mxCell id="Qo_AEfp6a7vn4tAhpDk_-30" value="" style="edgeStyle=orthogonalEdgeStyle;rounded=0;orthogonalLoop=1;jettySize=auto;html=1;" edge="1" parent="1" source="Qo_AEfp6a7vn4tAhpDk_-6" target="Qo_AEfp6a7vn4tAhpDk_-29">
          <mxGeometry relative="1" as="geometry"/>
        </mxCell>
        <mxCell id="Qo_AEfp6a7vn4tAhpDk_-6" value="缓存器" style="ellipse;whiteSpace=wrap;html=1;" vertex="1" parent="1">
          <mxGeometry x="130" y="460" width="90" height="40" as="geometry"/>
        </mxCell>
        <mxCell id="Qo_AEfp6a7vn4tAhpDk_-29" value="命中缓存直接返回" style="ellipse;whiteSpace=wrap;html=1;" vertex="1" parent="1">
          <mxGeometry x="10" y="460" width="90" height="40" as="geometry"/>
        </mxCell>
        <mxCell id="Qo_AEfp6a7vn4tAhpDk_-21" value="储存引擎" style="rounded=0;whiteSpace=wrap;html=1;fillColor=#f5f5f5;strokeColor=#666666;fontColor=#333333;" vertex="1" parent="1">
          <mxGeometry x="125" y="690" width="275" height="60" as="geometry"/>
        </mxCell>
        <mxCell id="Qo_AEfp6a7vn4tAhpDk_-22" value="Server层" style="text;html=1;strokeColor=none;fillColor=none;align=center;verticalAlign=middle;whiteSpace=wrap;rounded=0;" vertex="1" parent="1">
          <mxGeometry x="151" y="613" width="59" height="20" as="geometry"/>
        </mxCell>
      </root>
    </mxGraphModel>
  </diagram>
</mxfile>
